<svg xmlns="http://www.w3.org/2000/svg" viewBox="0 0 1982.43 652.56"><defs><style>.cls-1{fill:#fff;}</style></defs><title>Asset 2</title><g id="Layer_2" data-name="Layer 2"><g id="Layer_1-2" data-name="Layer 1"><path class="cls-1" d="M373.7,231.69c37.33,0,74.66,0,112-.07,3.36,0,4.85.55,5.42,4.35a266.15,266.15,0,0,1-.4,79.14c-5.1,34.19-15.6,66.57-36,94.81-34.53,47.9-80.66,78.82-138.81,90.56-48.59,9.81-97,8.68-143.67-9-91.34-34.68-149.65-99.37-167.85-196C-9.39,222,9.44,155.15,56.22,97,98.25,44.69,153,12.77,219.39,3.08,291.55-7.44,357.32,8.72,414.52,55.37c4.51,3.68,8.66,7.82,13.18,11.49,2.86,2.32,2.43,3.83,0,6.23-14.25,14-28.44,28.12-42.42,42.42-2.76,2.82-4.23,2.29-6.79,0-21.39-19.26-45.68-33.66-73.79-40.22C239.24,60,180.63,73.49,131.33,120.14c-30.54,28.9-48.38,65-53.7,106.77C69.7,289.06,87.39,343,132.24,387c28.71,28.19,63.75,44.38,103.85,48.64,38.77,4.11,76.11-.93,110.72-20.07,41-22.68,66.29-56.71,73.93-103.32,1.89-11.53,1.93-11.53-9.76-11.53-49.5,0-99,0-148.49.15-4.47,0-5.56-1.2-5.5-5.56q.36-29.24,0-58.49c0-4.13,1-5.29,5.22-5.27C299.37,231.75,336.54,231.69,373.7,231.69Z"/><path class="cls-1" d="M1539.79,348.29c0,48,.34,96-.12,144-.3,30.82-6.36,60.59-21.28,87.94-18.53,34-46.93,55.51-84.17,65.6-29.32,7.95-58.92,9.32-88.38,1.7-48.36-12.51-82.26-42.66-103.74-87.38-1.57-3.28-.71-4.35,2.46-5.64q27.05-11,53.89-22.48c3.34-1.43,4.65-1,6.31,2.33,12.91,26.27,32.3,45.77,61.69,51.53,31.51,6.17,60.88,1,83.77-24.1,12.58-13.78,17.94-30.87,20.49-49,1.86-13.27,1-26.62,1.16-39.93,0-1.08.53-2.49-.81-3.14-1.57-.75-2.44.56-3.32,1.51-22.54,24.46-51.29,34.66-83.67,34.95-34.87.31-66-11.49-93.31-32.94-34.22-26.89-55.14-62-61.53-105.12-11.74-79.09,34-152.14,103.51-178.27,33.53-12.61,67.32-13.43,100.74.86a95.78,95.78,0,0,1,33.75,23.55c1,1.07,1.78,2.81,3.53,2.28,2-.6,1.07-2.55,1.1-3.88.1-5.83.25-11.67,0-17.49-.18-3.65.82-4.89,4.68-4.85q29.49.29,59,0c3.51,0,4.52,1,4.49,4.49-.16,17.5-.07,35-.07,52.49q0,50.49,0,101ZM1477,343.63a111.66,111.66,0,0,0-8.35-43.86C1444,239.5,1371,225.47,1326.25,272.69c-20.9,22.08-28.54,49.12-26.61,79,1.84,28.45,13.19,52.35,35.3,70.7a84.32,84.32,0,0,0,115-6.31C1469.31,395.92,1476.78,371.07,1477,343.63Z"/><path class="cls-1" d="M874.66,343.14c.1-92.38,71.1-162.86,163.88-162.65s163.36,70.87,163.2,163.37c-.16,91.52-72.12,162.85-163.93,162.51C945.68,506,874.57,434.88,874.66,343.14Zm255.47.22a106.42,106.42,0,0,0-6.49-37.78c-24.15-66.13-107.93-82.3-153.61-29.68-30.31,34.92-32,92.1-3.73,129.88,26.7,35.74,74.85,47,113.89,25.5C1114.53,412.38,1129.05,381.47,1130.14,343.35Z"/><path class="cls-1" d="M685,506.35c-92.27-.19-163.63-71.65-163.34-163.56.3-92.2,71.14-162.43,163.73-162.31,92.78.12,163.6,70.88,163.35,163.21C848.53,435.43,776.94,506.55,685,506.35Zm92.16-162.85a102.14,102.14,0,0,0-4.56-32.06c-10.83-33.55-32.55-56.49-67.31-64.39-34.25-7.79-64,2.08-87.59,28.27-31,34.44-32.81,92.12-4.65,130.08,27.42,37,77.14,47.74,116.71,24.42C762.42,410.6,776.16,380.36,777.19,343.51Z"/><path class="cls-1" d="M1682.25,340.63c.41-38.88,11.54-76.1,38.41-107.41,30.66-35.73,70.06-53.21,117.1-52.74,55.21.56,94.65,28,123.17,73.53,9,14.35,14.68,30.17,21.06,45.7,1.44,3.5-1,3.49-2.8,4.26q-55.07,22.82-110.14,45.63-49.55,20.51-99.13,40.92c-3.68,1.5-4.79,2.61-2.57,6.58,20,35.73,52.12,48.65,90.33,43.93,27.33-3.38,47.77-18.2,63.61-40,2.37-3.26,3.82-3.87,7.33-1.46q23.47,16.1,47.36,31.57c3.66,2.37,3.47,3.85,1,7-35.66,46.79-82.5,70.29-141.61,67.62-69.19-3.13-125.25-46.65-145.81-112.61C1684.44,376.73,1682.27,359.78,1682.25,340.63Zm155.16-97.24a81.55,81.55,0,0,0-9.28.77c-44.24,7.88-75,44.78-75,89.76,0,3.68.84,4.22,4.21,2.77,11.3-4.88,22.71-9.47,34.08-14.19,34.4-14.27,68.77-28.63,103.24-42.72,4.22-1.73,4.2-3.36,2.14-6.74a53.74,53.74,0,0,0-11.44-13.76C1871.91,248.18,1856.26,243.59,1837.41,243.4Z"/><path class="cls-1" d="M1652.06,257.13q0,116.72.12,233.43c0,4.93-1.37,6-6.11,6-19.66-.28-39.32-.21-59,0-3.71,0-4.79-.94-4.79-4.73q.14-234.18,0-468.37c0-3.54.62-4.87,4.57-4.83q30.24.33,60.48,0c4.25-.05,4.76,1.54,4.76,5.13Q1652,140.41,1652.06,257.13Z"/></g></g></svg>