<?xml version="1.0" encoding="utf-8"?>
<!-- Generator: Adobe Illustrator 21.1.0, SVG Export Plug-In . SVG Version: 6.00 Build 0)  -->
<svg version="1.1" id="Layer_1" xmlns="http://www.w3.org/2000/svg" xmlns:xlink="http://www.w3.org/1999/xlink" x="0px" y="0px"
	 viewBox="0 0 214.7 68.6" style="enable-background:new 0 0 214.7 68.6;" xml:space="preserve">
<style type="text/css">
	.st0{enable-background:new    ;}
	.st1{fill:#FFFFFF;}
</style>
<title>x-team</title>
<g id="Layer_1-2">
	<g class="st0">
		<path class="st1" d="M15.1,29L2,8.5h10l8.3,14h0.5l8.3-14h10L26.2,29l14.1,22.4H30.2L20.9,36h-0.5L11,51.5H1L15.1,29z"/>
	</g>
	<g class="st0">
		<path class="st1" d="M44.6,29.4H65v7H44.6V29.4z"/>
	</g>
	<g class="st0">
		<path class="st1" d="M79.4,51.5V16.2h-12V8.5h32.1v7.7h-12v35.3H79.4z"/>
	</g>
	<g class="st0">
		<path class="st1" d="M127.3,44.4c-1.4,2.4-3.2,4.3-5.5,5.8c-2.3,1.5-5.1,2.2-8.4,2.2c-2.2,0-4.3-0.4-6.2-1.2
			c-1.9-0.8-3.6-1.9-4.9-3.3c-1.4-1.4-2.5-3-3.3-4.9c-0.8-1.9-1.2-4-1.2-6.3c0-2.1,0.4-4.1,1.1-6c0.8-1.9,1.8-3.6,3.2-5
			c1.4-1.4,3-2.5,4.8-3.4c1.9-0.8,3.9-1.3,6.1-1.3c2.4,0,4.5,0.4,6.3,1.2c1.8,0.8,3.4,1.9,4.6,3.2c1.2,1.4,2.2,3,2.8,4.9
			c0.6,1.9,1,3.9,1,6.1c0,0.3,0,0.5,0,0.7c0,0.2-0.1,0.5-0.1,0.7c0,0.2-0.1,0.4-0.1,0.7h-22.1c0.2,1.2,0.5,2.2,1,3.1
			c0.5,0.9,1.1,1.6,1.9,2.2s1.5,1,2.4,1.3c0.9,0.3,1.8,0.4,2.7,0.4c1.8,0,3.3-0.4,4.5-1.2c1.2-0.8,2.1-1.8,2.8-3.1L127.3,44.4z
			 M120.2,33c0-0.5-0.2-1.1-0.5-1.7s-0.7-1.2-1.3-1.8s-1.3-1-2.2-1.4c-0.9-0.4-1.9-0.5-3.1-0.5c-1.7,0-3.2,0.5-4.4,1.4
			c-1.3,1-2.2,2.3-2.7,4H120.2z"/>
	</g>
	<g class="st0">
		<path class="st1" d="M151.3,48.4h-0.5c-0.9,1.1-2,2.1-3.3,2.9c-1.3,0.8-3,1.2-5,1.2c-1.5,0-3-0.3-4.3-0.8
			c-1.3-0.5-2.5-1.2-3.5-2.1c-1-0.9-1.8-1.9-2.3-3.2c-0.6-1.2-0.8-2.6-0.8-4.1c0-1.5,0.3-2.9,0.9-4.1c0.6-1.2,1.4-2.3,2.5-3.2
			c1.1-0.9,2.3-1.5,3.8-2c1.5-0.5,3-0.7,4.8-0.7c1.9,0,3.5,0.2,4.7,0.5c1.2,0.3,2.3,0.6,3.1,0.9v-0.9c0-1.6-0.6-2.9-1.9-3.9
			c-1.2-1-2.8-1.5-4.6-1.5c-2.7,0-5,1.1-6.9,3.4l-5.7-3.9c3.1-3.9,7.4-5.9,12.8-5.9c4.6,0,8,1.1,10.4,3.2c2.4,2.1,3.6,5.3,3.6,9.5
			v17.6h-7.7V48.4z M151.3,39.5c-0.9-0.4-1.9-0.8-2.8-1c-1-0.3-2.1-0.4-3.2-0.4c-1.9,0-3.3,0.4-4.4,1.2c-1,0.8-1.5,1.8-1.5,3
			c0,1.2,0.5,2.2,1.5,2.9c1,0.7,2.1,1.1,3.4,1.1c1,0,2-0.2,2.9-0.6c0.9-0.4,1.6-0.9,2.3-1.5c0.6-0.6,1.1-1.3,1.4-2.2
			C151.1,41.3,151.3,40.4,151.3,39.5z"/>
		<path class="st1" d="M165.2,22.1h7.4v3.8h0.5c0.9-1.4,2.2-2.6,3.8-3.5c1.6-0.9,3.3-1.3,5.3-1.3c2.2,0,4.1,0.5,5.6,1.6
			c1.5,1,2.6,2.3,3.2,3.8c0.9-1.5,2.2-2.8,3.9-3.8c1.7-1.1,3.7-1.6,6.1-1.6c1.8,0,3.4,0.3,4.7,0.9c1.3,0.6,2.4,1.4,3.3,2.4
			c0.9,1,1.5,2.3,2,3.8c0.4,1.5,0.7,3,0.7,4.8v18.5h-7.9V34.4c0-4-1.6-6-4.9-6c-1,0-2,0.2-2.8,0.7c-0.8,0.5-1.5,1.1-2,1.9
			s-1,1.7-1.3,2.8s-0.5,2.2-0.5,3.5v14.3h-7.9V34.4c0-4-1.7-6-5.2-6c-1,0-1.9,0.2-2.6,0.7c-0.8,0.5-1.4,1.1-1.9,1.9
			s-0.9,1.7-1.2,2.8c-0.3,1.1-0.4,2.2-0.4,3.5v14.3h-7.9V22.1z"/>
	</g>
</g>
</svg>
